<svg width="18" height="22" viewBox="0 0 18 22" fill="none" xmlns="http://www.w3.org/2000/svg">
<path d="M15.5 7.75L14.59 16.8478C14.4524 18.2269 14.3842 18.9159 14.07 19.437C13.7945 19.8957 13.3892 20.2625 12.9054 20.4911C12.3562 20.75 11.665 20.75 10.2783 20.75H7.72167C6.33608 20.75 5.64383 20.75 5.09458 20.49C4.61038 20.2616 4.20475 19.8948 3.92892 19.4359C3.61692 18.9159 3.54758 18.2269 3.40892 16.8478L2.5 7.75M10.625 14.7917V9.375M7.375 14.7917V9.375M0.875 5.04167H5.87458M5.87458 5.04167L6.29275 2.147C6.41408 1.6205 6.85175 1.25 7.35442 1.25H10.6456C11.1483 1.25 11.5848 1.6205 11.7072 2.147L12.1254 5.04167M5.87458 5.04167H12.1254M12.1254 5.04167H17.125" stroke="#545F6A" stroke-width="1.5" stroke-linecap="round" stroke-linejoin="round"/>
</svg>
