<svg width="26" height="21" viewBox="0 0 26 21" fill="none" xmlns="http://www.w3.org/2000/svg">
<path d="M23.1602 0.920511C19.7468 3.34065 16.831 5.67678 14.0636 8.82528C12.8432 10.214 11.4765 11.8553 10.5337 13.4385C10.002 14.275 9.06397 15.5716 8.66149 16.8667C7.29637 15.3253 5.83831 13.5846 4.30962 12.1836C3.21999 11.1854 -0.340181 12.66 0.937322 13.8305C3.227 15.9276 5.05665 18.4406 7.27073 20.614C8.19692 21.5221 10.5944 19.9774 11.1893 19.2895C13.143 17.0224 13.6662 14.0704 15.1755 11.5372C17.4805 7.66273 21.1937 4.65642 24.8215 2.08489C27.2395 0.231721 24.9862 -0.371802 23.1636 0.920837" fill="#59A364"/>
</svg>
