<svg width="20" height="20" viewBox="0 0 20 20" fill="none" xmlns="http://www.w3.org/2000/svg">
<path d="M19.4117 0.549347C15.6952 0.685909 12.6813 1.48997 10.3772 2.7295L9.22603 4.6545L9.032 3.55712C8.62048 3.84626 8.23849 4.15173 7.88693 4.47146L7.31322 6.23161L7.11665 5.24899C5.52876 7.02661 4.75689 9.14993 4.81439 11.3391C6.66099 7.68021 9.98642 4.59192 13.0945 2.70021L13.474 3.32403C10.5322 5.11458 7.36517 8.05849 5.57611 11.4588H6.05095C6.82361 10.9893 7.58064 10.4097 8.33243 9.76192L7.14962 9.82423L9.26751 8.92212C11.0986 7.21755 12.9185 5.2122 14.8657 3.52056L13.9098 3.31782L16.1168 2.49634C17.1658 1.69614 18.2575 1.01806 19.4115 0.549347H19.4117ZM2.3254 12.1887V13.3765H7.57814V12.1887H2.3254ZM3.12134 14.1065L1.84572 15.2271L0.975403 18.5461L1.54298 19.1663H8.46564L9.03439 18.5461L8.16407 15.2271L6.95681 14.1065H3.12134V14.1065Z" fill="#545F6A"/>
</svg>
